<svg width="1100" height="175" viewBox="0 0 1100 175" fill="none" xmlns="http://www.w3.org/2000/svg">
<path d="M581.816 160.264H543.544C527.416 160.264 521.272 151.688 521.272 134.536V78.216C521.272 61.064 527.416 52.488 543.544 52.488H581.176V72.712H547.768C544.44 72.712 543.032 74.76 543.032 78.216V134.536C543.032 137.992 544.44 140.04 547.768 140.04H581.816V160.264ZM669.289 151.944L650.729 162.184L628.457 118.792H619.241V159.752H597.481V53H642.281C658.409 53 664.553 61.576 664.553 78.728V93.704C664.553 106.504 660.841 114.568 650.345 117.512L669.289 151.944ZM638.057 73.224H619.241V99.208H638.057C641.385 99.208 642.793 97.16 642.793 93.704V78.728C642.793 75.272 641.385 73.224 638.057 73.224ZM702.801 115.208V139.528H741.201V159.752H681.041V53H740.305V73.224H702.801V94.984H736.977V115.208H702.801ZM832.365 156.936L810.989 161.416L803.821 130.568H778.989L771.821 161.416L750.445 156.936L776.813 53.128H805.997L832.365 156.936ZM791.405 77.576L783.469 111.624H799.341L791.405 77.576ZM831.175 53.128H898.759V73.352H875.847V159.752H854.087V73.352H831.175V53.128ZM932.981 159.752H911.221V53H932.981V159.752ZM983.18 130.056L1000.2 52.104L1021.58 56.584L996.62 159.752H969.74L944.78 56.584L966.156 52.104L983.18 130.056ZM1055.1 115.208V139.528H1093.5V159.752H1033.34V53H1092.61V73.224H1055.1V94.984H1089.28V115.208H1055.1Z" fill="black"/>
<path d="M166.57 50C152.53 20.44 122.4 0 87.5 0H25C11.19 0 0 11.19 0 25C0 33.5 4.25 41 10.73 45.52C14.78 48.34 19.69 50 25 50H87.5C108.21 50 125 66.79 125 87.5C125 108.21 108.21 125 87.5 125C66.79 125 50 108.21 50 87.5H0C0 100.92 3.03 113.63 8.43 125C17.07 143.19 31.81 157.93 50 166.57C61.37 171.97 74.08 175 87.5 175C122.4 175 152.53 154.56 166.57 125C171.97 113.63 175 100.92 175 87.5C175 74.08 171.97 61.37 166.57 50Z" fill="#7143FF"/>
<path fill-rule="evenodd" clip-rule="evenodd" d="M475 150C475 163.81 463.81 175 450 175L388 175L387.5 175C339.18 175 300 135.82 300 87.5C300 39.18 339.18 3.99303e-05 387.5 3.78181e-05L388 3.77963e-05L450 3.50862e-05C463.81 3.44825e-05 475 11.19 475 25C475 38.81 463.81 50 450 50L388 50L388 50.0033C387.833 50.0011 387.667 50 387.5 50C386.939 50 386.38 50.0124 385.825 50.0368C365.892 50.9129 350 67.3512 350 87.5C350 88.985 350.086 90.4498 350.254 91.8897C352.281 109.276 366.203 123.033 383.666 124.806C384.926 124.934 386.205 125 387.5 125C387.503 125 387.507 125 387.51 125C387.674 125 387.837 124.999 388 124.997L388 125L450 125C463.81 125 475 136.19 475 150Z" fill="#7143FF"/>
<path d="M237.5 50C216.791 50 200 66.7914 200 87.5C200 108.209 216.791 125 237.5 125C258.208 125 275 108.209 275 87.5C275 66.7914 258.208 50 237.5 50Z" fill="#7143FF"/>
</svg>
