<svg width="1460" height="350" viewBox="0 0 1460 350" fill="none" xmlns="http://www.w3.org/2000/svg">
<path d="M740 300C740 327.62 762.38 350 790 350C817.62 350 840 327.62 840 300V176H840.02C840.02 175.66 840 175.34 840 175C840 133.58 873.58 100 915 100C956.42 100 990 133.58 990 175C990 175.34 989.98 175.66 989.98 176H990V300C990 327.62 1012.38 350 1040 350C1067.62 350 1090 327.62 1090 300V176C1090 175.66 1090 175.34 1090 175C1090 78.36 1011.64 0 915 0C818.36 0 740 78.36 740 175C740 175.34 740 175.66 740 176V300Z" fill="black"/>
<path d="M1410 350C1437.62 350 1460 327.62 1460 300C1460 272.38 1437.62 250 1410 250L1286 250L1286 249.98C1285.66 249.98 1285.34 250 1285 250C1243.58 250 1210 216.42 1210 175C1210 133.58 1243.58 100 1285 100C1285.34 100 1285.66 100.02 1286 100.02L1286 100L1410 100C1437.62 100 1460 77.62 1460 50C1460 22.38 1437.62 1.61969e-05 1410 1.74042e-05L1286 2.28244e-05C1285.66 2.28392e-05 1285.34 2.28532e-05 1285 2.28681e-05C1188.36 2.70924e-05 1110 78.36 1110 175C1110 271.64 1188.36 350 1285 350C1285.34 350 1285.66 350 1286 350L1410 350Z" fill="black"/>
<path d="M720 50C720 22.38 697.62 0 670 0C642.38 0 620 22.38 620 50V174H619.98C619.98 174.34 620 174.66 620 175C620 216.42 586.42 250 545 250C503.58 250 470 216.42 470 175C470 174.66 470.02 174.34 470.02 174H470V50C470 22.38 447.62 0 420 0C392.38 0 370 22.38 370 50V174C370 174.34 370 174.66 370 175C370 271.64 448.36 350 545 350C641.64 350 720 271.64 720 175C720 174.66 720 174.34 720 174V50Z" fill="black"/>
<path d="M333.14 100C305.06 40.88 244.8 0 175 0H50C22.38 0 0 22.38 0 50C0 67 8.5 82 21.46 91.04C29.56 96.68 39.38 100 50 100H175C216.42 100 250 133.58 250 175C250 216.42 216.42 250 175 250C133.58 250 100 216.42 100 175H0C0 201.84 6.06 227.26 16.86 250C34.14 286.38 63.62 315.86 100 333.14C122.74 343.94 148.16 350 175 350C244.8 350 305.06 309.12 333.14 250C343.94 227.26 350 201.84 350 175C350 148.16 343.94 122.74 333.14 100Z" fill="black"/>
</svg>
